# Blender v2.93.5 OBJ File: 'planoroca.blend'
# www.blender.org
mtllib planoroca2.mtl
o Plane
v 563.081421 585.507324 -52.000050
v 563.081421 -614.492676 -52.000000
v -556.918579 585.507324 -52.000000
v -556.918579 -614.492676 -51.999950
v 563.081421 585.507324 51.999950
v 563.081421 -614.492676 52.000000
v -556.918579 585.507324 52.000000
v -556.918579 -614.492676 52.000050
vt -10.027021 -10.027021
vt 11.027021 -10.027021
vt 11.027021 11.027021
vt -10.027021 11.027021
vt -10.027021 -10.027021
vt -10.027021 11.027021
vt 11.027021 11.027021
vt 11.027021 -10.027021
vn -0.0000 -0.0000 -1.0000
vn 0.0000 0.0000 1.0000
vn 0.0000 1.0000 0.0000
vn 1.0000 -0.0000 0.0000
vn 0.0000 -1.0000 0.0000
vn -1.0000 -0.0000 0.0000
usemtl Material
s off
f 1/1/1 2/2/1 4/3/1 3/4/1
f 5/5/2 7/6/2 8/7/2 6/8/2
f 1/1/3 3/4/3 7/6/3 5/5/3
f 2/2/4 1/1/4 5/5/4 6/8/4
f 4/3/5 2/2/5 6/8/5 8/7/5
f 3/4/6 4/3/6 8/7/6 7/6/6
